<?xml version="1.0" encoding="UTF-8" standalone="no"?> <svg xmlns="http://www.w3.org/2000/svg" viewBox="0 0 64 64"><defs><style>.cls-1{fill:#f57e17;stroke:#f57e17;}.cls-1,.cls-2,.cls-3{stroke-linecap:round;stroke-width:2px;}.cls-1,.cls-3{stroke-linejoin:round;}.cls-2{fill:#5b3b63;stroke:#5b3b63;stroke-linejoin:bevel;opacity:0.1;}.cls-3{fill:none;stroke:#4f4f4f;}</style></defs><title>nervous</title><g id="nervous"><path class="cls-1" d="M60,31C60,15.5,47.46,4,32,4S4,15.5,4,31,16.54,60,32,60,60,46.43,60,31Z"/><path class="cls-2" d="M32,55C17.38,55,5.38,42.87,4.12,28.47,4,29.29,4,30.12,4,31,4,46.43,16.54,60,32,60S60,46.43,60,31c0-.84,0-1.67-.12-2.49C58.62,42.87,46.62,55,32,55Z"/><polyline class="cls-3" points="21 22 24.94 24.3 20 27"/><polyline class="cls-3" points="42.94 22 39 24.3 43.94 27"/><polyline class="cls-3" points="18 40 22 37 24 40 26 37 28 40 30 37 32 40"/><polyline class="cls-3" points="32 40 34 37 36 40 38 37 40 40 42 37 46 40"/><line class="cls-3" x1="54" y1="8" x2="59" y2="3"/><line class="cls-3" x1="51" y1="5" x2="51" y2="2"/><line class="cls-3" x1="56" y1="11" x2="60" y2="11"/></g></svg>